# AST/ASF file generated using VICON BodyLanguage
# -----------------------------------------------
:version 1.10
:name VICON
:units
  mass 1.0
  length 0.45
  angle deg
:documentation
   .ast/.asf automatically generated from VICON data using
   VICON BodyBuilder and BodyLanguage model FoxedUp or BRILLIANT.MOD
:root
   order TX TY TZ RX RY RZ
   axis XYZ
   position 0 0 0  
   orientation 0 0 0 
:bonedata
  begin
     id 1 
     name lhipjoint
     direction 0.643824 -0.71708 0.266994 
     length 2.52133 
     axis 0 0 0  XYZ
  end
  begin
     id 2 
     name lfemur
     direction 0.34202 -0.939693 0  
     length 7.51824  
     axis 0 0 20  XYZ
    dof rx ry rz
    limits (-160.0 20.0)
           (-70.0 70.0)
           (-60.0 70.0)
  end
  begin
     id 3 
     name ltibia
     direction 0.34202 -0.939693 0   
     length 7.3685   
     axis 0 0 20   XYZ
    dof rx
    limits (-10.0 170.0)
  end
  begin
     id 4 
     name lfoot
     direction 0.105419 -0.289636 0.951314   
     length 2.20972   
     axis -90 7.62852e-016 20   XYZ
    dof rx rz
    limits (-45.0 90.0)
           (-70.0 20.0)
  end
  begin
     id 5 
     name ltoes
     direction 1.53549e-011 -4.21833e-011 1   
     length 1.10139   
     axis -90 7.62852e-016 20   XYZ
    dof rx
    limits (-90.0 20.0)
  end
  begin
     id 6 
     name rhipjoint
     direction -0.608823 -0.743445 0.276811   
     length 2.43192  
     axis 0 0 0  XYZ 
  end
  begin
     id 7 
     name rfemur
     direction -0.34202 -0.939693 0   
     length 7.69715   
     axis 0 0 -20   XYZ
    dof rx ry rz
    limits (-160.0 20.0)
           (-70.0 70.0)
           (-70.0 60.0)
  end
  begin
     id 8 
     name rtibia
     direction -0.34202 -0.939693 0   
     length 7.44924   
     axis 0 0 -20   XYZ
    dof rx
    limits (-10.0 170.0)
 end
 begin
     id 9 
     name rfoot
     direction -0.103614 -0.284677 0.953007   
     length 2.22623  
     axis -90 -7.62852e-016 -20   XYZ
    dof rx rz
    limits (-45.0 90.0)
           (-20.0 70.0)
  end
  begin
     id 10 
     name rtoes
     direction -1.53537e-011 -4.22026e-011 1   
     length 1.11   
     axis -90 -7.62852e-016 -20   XYZ
    dof rx
    limits (-90.0 20.0)
  end
  begin
     id 11 
     name lowerback
     direction -0.0101212 0.99662 -0.0815298   
     length 2.08277   
     axis 0 0 0   XYZ
    dof rx ry rz
    limits (-20.0 45.0)
           (-30.0 30.0)
           (-30.0 30.0)
  end
  begin
     id 12 
     name upperback
     direction 0.024314 0.999591 -0.0150645   
     length 2.08524   
     axis 0 0 0   XYZ
    dof rx ry rz
    limits (-20.0 45.0)
           (-30.0 30.0)
           (-30.0 30.0)
  end
  begin
     id 13 
     name thorax
     direction 0.0285959 0.999323 0.0231357   
     length 2.09645   
     axis 0 0 0   XYZ
    dof rx ry rz
    limits (-20.0 45.0)
           (-30.0 30.0)
           (-30.0 30.0)
  end
  begin
     id 14 
     name lowerneck
     direction -0.065512 0.979301 0.191515   
     length 1.63798   
     axis 0 0 0   XYZ
    dof rx ry rz
    limits (-20.0 45.0)
           (-30.0 30.0)
           (-30.0 30.0)
  end
  begin
     id 15 
     name upperneck
     direction 0.0498479 0.98191 -0.182667   
     length 1.68731   
     axis 0 0 0   XYZ
    dof rx ry rz
    limits (-20.0 45.0)
           (-30.0 30.0)
           (-30.0 30.0)
  end
  begin
     id 16
     name head
     direction 0.0230358 0.996257 -0.0833175  
     length 1.69785  
     axis 0 0 0   XYZ
    dof rx ry rz
    limits (-20.0 45.0)
           (-30.0 30.0)
           (-30.0 30.0)
  end
  begin
     id 17 
     name lclavicle
     direction 0.967963 0.201165 -0.150269  
     length 3.63976  
     axis 0 0 0   XYZ
    dof ry rz
    limits (-20.0 10.0)
           (0.0 20.0)
  end
  begin
     id 18 
     name lhumerus
     direction 1 -4.48954e-011 -2.92837e-028   
     length 5.32462   
     axis 180 -30 -90   XYZ
    dof rx ry rz
    limits (-60.0 90.0)
           (-90.0 90.0)
           (-90.0 90.0)
  end
  begin
     id 19
     name lradius
     direction 1 -4.48958e-011 -6.39511e-027   
     length 3.48402   
     axis 180 -30 -90   XYZ
    dof rx
    limits (-10.0 170.0)
  end
  begin
     id 20
     name lwrist
     direction 1 -4.48975e-011 -1.1413e-026   
     length 1.74201   
     axis 6.88575e-015 90 90   XYZ
    dof ry
    limits (-180.0 0.0)
 end
  begin
     id 21 
     name lhand
     direction 1 -4.48899e-011 -2.28192e-026   
     length 0.572476   
     axis 1.45643e-014 90 90   XYZ
    dof rx rz
    limits (-90.0 90.0)
           (-45.0 45.0)
  end
  begin
     id 22 
     name lfingers
     direction 1 -4.49155e-011 -4.5684e-026   
     length 0.461545   
     axis 2.91283e-014 90 90   XYZ
    dof rx
    limits (0.0 90.0)
  end
  begin
     id 23
     name lthumb
     direction 0.707107 -6.34943e-011 0.707107   
     length 0.662688   
     axis -90 45 -2.25915e-014   XYZ
    dof rx rz
    limits (-45.0 45.0)
           (-45.0 45.0)
  end
  begin
     id 24 
     name rclavicle
     direction -0.964103 0.264019 -0.0282629   
     length 3.54491  
     axis 0 0 0   XYZ 
    dof ry rz
    limits (-10.0 20.0)
           (-20.0 0.0)
  end
  begin
     id 25 
     name rhumerus
     direction -1 -4.48964e-011 -2.45032e-027  
     length 5.33589   
     axis 180 30 90   XYZ
    dof rx ry rz
    limits (-90.0 60.0)
           (-90.0 90.0)
           (-90.0 90.0)
  end
  begin
     id 26 
     name rradius
     direction -1 -4.48987e-011 -1.55093e-027   
     length 3.64134   
     axis 180 30 90   XYZ
    dof rx
    limits (-10.0 170.0)
  end
  begin
     id 27 
     name rwrist
     direction -1 -4.4897e-011 -1.14128e-026   
     length 1.82067   
     axis 6.88575e-015 -90 -90   XYZ
    dof ry
    limits (-180.0 0.0)
  end
  begin
     id 28
     name rhand
     direction -1 -4.49021e-011 -2.28301e-026   
     length 0.734811   
     axis 1.45643e-014 -90 -90   XYZ
    dof rx rz
    limits (-90.0 90.0)
           (-45.0 45.0)
  end
  begin
     id 29
     name rfingers
     direction -1 -4.48862e-011 -4.56319e-026   
     length 0.592424   
     axis 2.91283e-014 -90 -90   XYZ
    dof rx
    limits (0.0 90.0)
  end
  begin
     id 30
     name rthumb
     direction -0.707107 -6.34978e-011 0.707107   
     length 0.850605   
     axis -90 -45 2.25915e-014   XYZ
    dof rx rz
    limits (-45.0 45.0)
           (-45.0 45.0)
  end
:hierarchy
  begin
    root lhipjoint rhipjoint lowerback
    lhipjoint lfemur
    lfemur ltibia
    ltibia lfoot
    lfoot ltoes
    rhipjoint rfemur
    rfemur rtibia
    rtibia rfoot
    rfoot rtoes
    lowerback upperback
    upperback thorax
    thorax lowerneck lclavicle rclavicle
    lowerneck upperneck
    upperneck head
    lclavicle lhumerus
    lhumerus lradius
    lradius lwrist
    lwrist lhand lthumb
    lhand lfingers
    rclavicle rhumerus
    rhumerus rradius
    rradius rwrist
    rwrist rhand rthumb
    rhand rfingers
  end

#!OML:ASF F:\VICON\USERDATA\INSTALL\rory3\rory3.ASF
:FULLY-SPECIFIED
:DEGREES
101
root 1.51892 17.6296 11.073 -172.961 -0.0491322 176.706
lowerback 3.68819 -0.552901 -6.60591
upperback 0.610588 -0.998567 1.24997
thorax -1.30462 -0.478806 5.05485
lowerneck -20.3258 -2.7848 -8.05195
upperneck 34.6306 0.39725 2.63597
head 15.6922 0.26955 2.83423
rclavicle -1.00386e-014 3.18055e-015
rhumerus -32.0077 -3.24765 -79.6821
rradius 40.7009
rwrist 14.2171
rhand -18.9648 3.84339
rfingers 7.12502
rthumb 7.3391 -26.0093
lclavicle -1.00386e-014 3.18055e-015
lhumerus -31.1606 8.4815 84.1276
lradius 27.043
lwrist -10.9776
lhand -12.8984 25.7835
lfingers 7.12502
lthumb 13.1911 55.3462
rfemur -36.1781 2.76899 15.3094
rtibia 31.1682
rfoot -12.3684 -8.99654
rtoes 3.31006
lfemur -2.85662 1.1224 -27.2871
ltibia 14.4764
lfoot -15.8805 -3.46245
ltoes 0.719487
102
root 1.52529 17.6248 11.0277 -172.654 0.111527 176.852
lowerback 3.62057 -0.500351 -6.34688
upperback 0.502594 -0.911801 1.31935
thorax -1.39316 -0.428872 4.97672
lowerneck -20.2786 -2.82293 -8.1973
upperneck 34.5737 0.355552 2.70794
head 15.6576 0.242239 2.87931
rclavicle 4.57205e-015 -1.47101e-014
rhumerus -31.7078 -2.90191 -79.5939
rradius 40.8268
rwrist 13.8463
rhand -18.7477 4.05283
rfingers 7.12502
rthumb 7.54865 -25.7925
lclavicle 4.57205e-015 -1.47101e-014
lhumerus -31.2677 8.58066 84.1839
lradius 27.1383
lwrist -11.0262
lhand -12.9322 25.3204
lfingers 7.12502
lthumb 13.1585 54.8851
rfemur -36.5939 2.78246 15.5118
rtibia 31.0825
rfoot -11.8541 -8.79011
rtoes 4.87094
lfemur -2.95418 0.902281 -27.1617
ltibia 14.34
lfoot -15.9454 -3.07499
ltoes 0.857907
103
root 1.53611 17.6154 10.9798 -172.406 0.19489 176.805
lowerback 3.62547 -0.454312 -6.30638
upperback 0.423826 -0.84875 1.34085
thorax -1.48604 -0.391323 4.97432
lowerneck -20.3448 -2.85599 -8.29239
upperneck 34.6047 0.332654 2.75795
head 15.6908 0.225925 2.91497
rclavicle 8.34896e-015 -7.95139e-016
rhumerus -31.4112 -2.70332 -79.4811
rradius 40.954
rwrist 13.7465
rhand -18.805 5.54583
rfingers 7.12502
rthumb 7.49335 -24.3014
lclavicle 8.34896e-015 -7.95139e-016
lhumerus -31.299 8.70335 84.238
lradius 27.1786
lwrist -11.1015
lhand -13.0478 25.1016
lfingers 7.12502
lthumb 13.0471 54.6735
rfemur -36.9316 2.70805 15.5306
rtibia 30.9744
rfoot -11.5641 -8.53015
rtoes 5.08463
lfemur -2.98953 0.72675 -27.2116
ltibia 14.2593
lfoot -16.0113 -2.84741
ltoes 0.859918
104
root 1.55151 17.6107 10.9244 -172.345 0.144462 176.807
lowerback 3.68388 -0.438463 -6.22363
upperback 0.473541 -0.828138 1.35664
thorax -1.47106 -0.383929 4.9434
lowerneck -20.4467 -2.87942 -8.2668
upperneck 34.5817 0.296642 2.72068
head 15.7062 0.203765 2.88648
rclavicle -1.98785e-015 1.03368e-014
rhumerus -31.0721 -2.52689 -79.4392
rradius 41.1884
rwrist 13.6331
rhand -18.9181 6.57404
rfingers 7.12502
rthumb 7.38421 -23.2771
lclavicle -1.98785e-015 1.03368e-014
lhumerus -31.2522 8.67662 84.2861
lradius 27.2963
lwrist -10.9482
lhand -13.104 25.1036
lfingers 7.12502
lthumb 12.9929 54.679
rfemur -36.9927 2.62501 15.6281
rtibia 30.8884
rfoot -11.2907 -8.2214
rtoes 4.5208
lfemur -2.79172 0.502677 -27.1642
ltibia 14.1749
lfoot -16.0686 -2.65915
ltoes 1.00222
105
root 1.56967 17.6056 10.8671 -172.283 0.0697174 176.806
lowerback 3.72999 -0.440022 -6.18835
upperback 0.49665 -0.831648 1.38148
thorax -1.47271 -0.386743 4.95
lowerneck -20.4021 -2.8618 -8.14578
upperneck 34.4625 0.314719 2.55325
head 15.6366 0.200772 2.79033
rclavicle 2.98177e-015 -1.59028e-015
rhumerus -30.7548 -2.24664 -79.4209
rradius 41.4606
rwrist 13.3959
rhand -18.8706 6.78821
rfingers 7.12502
rthumb 7.43009 -23.0613
lclavicle 2.98177e-015 -1.59028e-015
lhumerus -31.2721 8.55431 84.3414
lradius 27.4509
lwrist -10.7464
lhand -13.0359 25.0357
lfingers 7.12502
lthumb 13.0586 54.6069
rfemur -37.0777 2.75818 15.6567
rtibia 30.8668
rfoot -11.0126 -8.04484
rtoes 3.95738
lfemur -2.55987 0.294581 -27.0998
ltibia 13.9944
lfoot -16.0842 -2.59039
ltoes 1.30181
106
root 1.58975 17.6027 10.806 -172.129 0.00821765 176.863
lowerback 3.69844 -0.422759 -6.1444
upperback 0.461916 -0.803557 1.44835
thorax -1.49424 -0.370737 4.99352
lowerneck -20.3043 -2.88318 -8.05394
upperneck 34.3795 0.304697 2.36308
head 15.5757 0.182697 2.68662
rclavicle 6.36111e-015 -7.95139e-016
rhumerus -30.4781 -1.85752 -79.3505
rradius 41.7737
rwrist 12.9838
rhand -18.7881 6.66547
rfingers 7.12502
rthumb 7.50967 -23.1812
lclavicle 6.36111e-015 -7.95139e-016
lhumerus -31.3779 8.42385 84.4253
lradius 27.5976
lwrist -10.5449
lhand -13.1453 24.5992
lfingers 7.12502
lthumb 12.9531 54.1771
rfemur -37.2088 2.94276 15.7286
rtibia 30.8948
rfoot -10.7448 -7.95101
rtoes 3.55349
lfemur -2.44218 0.211616 -26.9634
ltibia 13.8269
lfoot -16.0704 -2.65405
ltoes 1.4358
107
root 1.60579 17.5982 10.7399 -172.031 0.0203878 176.95
lowerback 3.67414 -0.40454 -6.0476
upperback 0.413651 -0.772123 1.56296
thorax -1.53436 -0.352332 5.05706
lowerneck -20.1499 -2.92643 -8.05452
upperneck 34.2987 0.325556 2.10666
head 15.5037 0.15828 2.577
rclavicle 7.95139e-016 -2.10712e-014
rhumerus -30.2588 -1.33808 -79.2125
rradius 42.0117
rwrist 12.7551
rhand -18.9665 6.51159
rfingers 7.12502
rthumb 7.33746 -23.3412
lclavicle 7.95139e-016 -2.10712e-014
lhumerus -31.6026 8.55868 84.5178
lradius 27.7671
lwrist -10.5281
lhand -13.3362 24.5146
lfingers 7.12502
lthumb 12.7691 54.1041
rfemur -37.2337 3.00398 15.8865
rtibia 30.9699
rfoot -10.381 -7.72261
rtoes 3.00998
lfemur -2.27408 -0.0693829 -26.8528
ltibia 13.7581
lfoot -16.2745 -2.31353
ltoes 0.881004
